<?xml version="1.0" encoding="UTF-8" standalone="no"?>
<!DOCTYPE svg PUBLIC "-//W3C//DTD SVG 1.1//EN"
 "http://www.w3.org/Graphics/SVG/1.1/DTD/svg11.dtd">
<!-- Generated by graphviz version 3.0.0 (20220226.1711)
 -->
<!-- Pages: 1 -->
<svg width="389pt" height="221pt"
 viewBox="14.40 14.40 374.40 206.32" xmlns="http://www.w3.org/2000/svg" xmlns:xlink="http://www.w3.org/1999/xlink">
<g id="graph0" class="graph" transform="scale(0.655431 0.655431) rotate(0) translate(25.97 310.78)">
<polygon fill="white" stroke="transparent" points="-4,4 -4,-288.81 545.26,-288.81 545.26,4 -4,4"/>
<!-- q3q6 -->
<g id="node1" class="node">
<title>q3q6</title>
<ellipse fill="none" stroke="black" cx="519.26" cy="-106.41" rx="18" ry="18"/>
<ellipse fill="none" stroke="black" cx="519.26" cy="-106.41" rx="22" ry="22"/>
<text text-anchor="middle" x="519.26" y="-102.71" font-family="Times New Roman,serif" font-size="14.00">q3q6</text>
</g>
<!-- q3q6&#45;&gt;q3q6 -->
<g id="edge18" class="edge">
<title>q3q6&#45;&gt;q3q6</title>
<path fill="none" stroke="black" d="M511.25,-126.99C510.14,-137.25 512.81,-146.41 519.26,-146.41 523.39,-146.41 525.97,-142.65 526.99,-137.25"/>
<polygon fill="black" stroke="black" points="530.5,-137.07 527.26,-126.99 523.5,-136.89 530.5,-137.07"/>
<text text-anchor="middle" x="519.26" y="-150.21" font-family="Times New Roman,serif" font-size="14.00">a,b</text>
</g>
<!--   -->
<g id="node2" class="node">
<title> </title>
<ellipse fill="none" stroke="white" cx="20.51" cy="-117.41" rx="20.51" ry="20.51"/>
<text text-anchor="middle" x="20.51" y="-113.71" font-family="Times New Roman,serif" font-size="14.00"> </text>
</g>
<!-- q1q4 -->
<g id="node3" class="node">
<title>q1q4</title>
<ellipse fill="none" stroke="black" cx="108.42" cy="-117.41" rx="30.31" ry="30.31"/>
<text text-anchor="middle" x="108.42" y="-113.71" font-family="Times New Roman,serif" font-size="14.00">q1q4</text>
</g>
<!--  &#45;&gt;q1q4 -->
<g id="edge1" class="edge">
<title> &#45;&gt;q1q4</title>
<path fill="none" stroke="black" d="M41.43,-117.41C49.28,-117.41 58.59,-117.41 67.7,-117.41"/>
<polygon fill="black" stroke="black" points="67.82,-120.91 77.82,-117.41 67.82,-113.91 67.82,-120.91"/>
</g>
<!-- q2q4 -->
<g id="node4" class="node">
<title>q2q4</title>
<ellipse fill="none" stroke="black" cx="213.23" cy="-157.41" rx="30.31" ry="30.31"/>
<text text-anchor="middle" x="213.23" y="-153.71" font-family="Times New Roman,serif" font-size="14.00">q2q4</text>
</g>
<!-- q1q4&#45;&gt;q2q4 -->
<g id="edge2" class="edge">
<title>q1q4&#45;&gt;q2q4</title>
<path fill="none" stroke="black" d="M136.97,-128.12C148.72,-132.7 162.62,-138.1 175.25,-143.02"/>
<polygon fill="black" stroke="black" points="174.01,-146.29 184.6,-146.66 176.55,-139.77 174.01,-146.29"/>
<text text-anchor="middle" x="160.82" y="-143.21" font-family="Times New Roman,serif" font-size="14.00">a</text>
</g>
<!-- q1q5 -->
<g id="node5" class="node">
<title>q1q5</title>
<ellipse fill="none" stroke="black" cx="213.23" cy="-78.41" rx="30.31" ry="30.31"/>
<text text-anchor="middle" x="213.23" y="-74.71" font-family="Times New Roman,serif" font-size="14.00">q1q5</text>
</g>
<!-- q1q4&#45;&gt;q1q5 -->
<g id="edge3" class="edge">
<title>q1q4&#45;&gt;q1q5</title>
<path fill="none" stroke="black" d="M137.24,-106.85C148.78,-102.47 162.35,-97.33 174.75,-92.62"/>
<polygon fill="black" stroke="black" points="176.28,-95.79 184.38,-88.97 173.79,-89.24 176.28,-95.79"/>
<text text-anchor="middle" x="160.82" y="-103.21" font-family="Times New Roman,serif" font-size="14.00">b</text>
</g>
<!-- q2q5 -->
<g id="node6" class="node">
<title>q2q5</title>
<ellipse fill="none" stroke="black" cx="318.04" cy="-142.41" rx="30.31" ry="30.31"/>
<text text-anchor="middle" x="318.04" y="-138.71" font-family="Times New Roman,serif" font-size="14.00">q2q5</text>
</g>
<!-- q2q4&#45;&gt;q2q5 -->
<g id="edge9" class="edge">
<title>q2q4&#45;&gt;q2q5</title>
<path fill="none" stroke="black" d="M243.42,-153.15C254.05,-151.6 266.26,-149.81 277.64,-148.15"/>
<polygon fill="black" stroke="black" points="278.39,-151.58 287.78,-146.67 277.38,-144.65 278.39,-151.58"/>
<text text-anchor="middle" x="265.63" y="-154.21" font-family="Times New Roman,serif" font-size="14.00">b</text>
</g>
<!-- q3q4 -->
<g id="node9" class="node">
<title>q3q4</title>
<ellipse fill="none" stroke="black" cx="318.04" cy="-221.41" rx="30.31" ry="30.31"/>
<text text-anchor="middle" x="318.04" y="-217.71" font-family="Times New Roman,serif" font-size="14.00">q3q4</text>
</g>
<!-- q2q4&#45;&gt;q3q4 -->
<g id="edge8" class="edge">
<title>q2q4&#45;&gt;q3q4</title>
<path fill="none" stroke="black" d="M239.38,-173.06C252.57,-181.27 268.92,-191.45 283.21,-200.35"/>
<polygon fill="black" stroke="black" points="281.45,-203.38 291.79,-205.69 285.15,-197.43 281.45,-203.38"/>
<text text-anchor="middle" x="265.63" y="-194.21" font-family="Times New Roman,serif" font-size="14.00">a</text>
</g>
<!-- q1q5&#45;&gt;q2q5 -->
<g id="edge4" class="edge">
<title>q1q5&#45;&gt;q2q5</title>
<path fill="none" stroke="black" d="M239.38,-94.06C252.57,-102.27 268.92,-112.45 283.21,-121.35"/>
<polygon fill="black" stroke="black" points="281.45,-124.38 291.79,-126.69 285.15,-118.43 281.45,-124.38"/>
<text text-anchor="middle" x="265.63" y="-116.21" font-family="Times New Roman,serif" font-size="14.00">a</text>
</g>
<!-- q1q6 -->
<g id="node7" class="node">
<title>q1q6</title>
<ellipse fill="none" stroke="black" cx="318.04" cy="-30.41" rx="30.31" ry="30.31"/>
<text text-anchor="middle" x="318.04" y="-26.71" font-family="Times New Roman,serif" font-size="14.00">q1q6</text>
</g>
<!-- q1q5&#45;&gt;q1q6 -->
<g id="edge5" class="edge">
<title>q1q5&#45;&gt;q1q6</title>
<path fill="none" stroke="black" d="M240.97,-65.92C253.13,-60.24 267.71,-53.44 280.83,-47.31"/>
<polygon fill="black" stroke="black" points="282.49,-50.4 290.07,-43 279.53,-44.06 282.49,-50.4"/>
<text text-anchor="middle" x="265.63" y="-60.21" font-family="Times New Roman,serif" font-size="14.00">b</text>
</g>
<!-- q2q6 -->
<g id="node8" class="node">
<title>q2q6</title>
<ellipse fill="none" stroke="black" cx="422.85" cy="-50.41" rx="30.31" ry="30.31"/>
<text text-anchor="middle" x="422.85" y="-46.71" font-family="Times New Roman,serif" font-size="14.00">q2q6</text>
</g>
<!-- q2q5&#45;&gt;q2q6 -->
<g id="edge11" class="edge">
<title>q2q5&#45;&gt;q2q6</title>
<path fill="none" stroke="black" d="M341.35,-122.44C356.17,-109.18 375.8,-91.62 391.96,-77.15"/>
<polygon fill="black" stroke="black" points="394.47,-79.61 399.59,-70.33 389.8,-74.39 394.47,-79.61"/>
<text text-anchor="middle" x="370.45" y="-103.21" font-family="Times New Roman,serif" font-size="14.00">b</text>
</g>
<!-- q3q5 -->
<g id="node10" class="node">
<title>q3q5</title>
<ellipse fill="none" stroke="black" cx="422.85" cy="-162.41" rx="30.31" ry="30.31"/>
<text text-anchor="middle" x="422.85" y="-158.71" font-family="Times New Roman,serif" font-size="14.00">q3q5</text>
</g>
<!-- q2q5&#45;&gt;q3q5 -->
<g id="edge10" class="edge">
<title>q2q5&#45;&gt;q3q5</title>
<path fill="none" stroke="black" d="M347.95,-148.03C358.79,-150.14 371.3,-152.57 382.9,-154.83"/>
<polygon fill="black" stroke="black" points="382.32,-158.28 392.8,-156.75 383.65,-151.41 382.32,-158.28"/>
<text text-anchor="middle" x="370.45" y="-157.21" font-family="Times New Roman,serif" font-size="14.00">a</text>
</g>
<!-- q1q6&#45;&gt;q1q6 -->
<g id="edge7" class="edge">
<title>q1q6&#45;&gt;q1q6</title>
<path fill="none" stroke="black" d="M308.31,-59.23C307.99,-69.97 311.24,-78.81 318.04,-78.81 322.51,-78.81 325.44,-75 326.84,-69.35"/>
<polygon fill="black" stroke="black" points="330.34,-69.51 327.77,-59.23 323.36,-68.86 330.34,-69.51"/>
<text text-anchor="middle" x="318.04" y="-82.61" font-family="Times New Roman,serif" font-size="14.00">b</text>
</g>
<!-- q1q6&#45;&gt;q2q6 -->
<g id="edge6" class="edge">
<title>q1q6&#45;&gt;q2q6</title>
<path fill="none" stroke="black" d="M347.95,-36.03C358.79,-38.14 371.3,-40.57 382.9,-42.83"/>
<polygon fill="black" stroke="black" points="382.32,-46.28 392.8,-44.75 383.65,-39.41 382.32,-46.28"/>
<text text-anchor="middle" x="370.45" y="-45.21" font-family="Times New Roman,serif" font-size="14.00">a</text>
</g>
<!-- q2q6&#45;&gt;q3q6 -->
<g id="edge12" class="edge">
<title>q2q6&#45;&gt;q3q6</title>
<path fill="none" stroke="black" d="M449.65,-65.71C462.48,-73.32 477.98,-82.51 491,-90.24"/>
<polygon fill="black" stroke="black" points="489.58,-93.47 499.97,-95.56 493.16,-87.45 489.58,-93.47"/>
<text text-anchor="middle" x="475.26" y="-86.21" font-family="Times New Roman,serif" font-size="14.00">a</text>
</g>
<!-- q2q6&#45;&gt;q2q6 -->
<g id="edge13" class="edge">
<title>q2q6&#45;&gt;q2q6</title>
<path fill="none" stroke="black" d="M413.12,-79.23C412.8,-89.97 416.05,-98.81 422.85,-98.81 427.32,-98.81 430.25,-95 431.65,-89.35"/>
<polygon fill="black" stroke="black" points="435.15,-89.51 432.58,-79.23 428.18,-88.86 435.15,-89.51"/>
<text text-anchor="middle" x="422.85" y="-102.61" font-family="Times New Roman,serif" font-size="14.00">b</text>
</g>
<!-- q3q4&#45;&gt;q3q4 -->
<g id="edge14" class="edge">
<title>q3q4&#45;&gt;q3q4</title>
<path fill="none" stroke="black" d="M308.31,-250.23C307.99,-260.97 311.24,-269.81 318.04,-269.81 322.51,-269.81 325.44,-266 326.84,-260.35"/>
<polygon fill="black" stroke="black" points="330.34,-260.51 327.77,-250.23 323.36,-259.86 330.34,-260.51"/>
<text text-anchor="middle" x="318.04" y="-273.61" font-family="Times New Roman,serif" font-size="14.00">a</text>
</g>
<!-- q3q4&#45;&gt;q3q5 -->
<g id="edge15" class="edge">
<title>q3q4&#45;&gt;q3q5</title>
<path fill="none" stroke="black" d="M344.72,-206.67C357.6,-199.28 373.38,-190.22 387.31,-182.23"/>
<polygon fill="black" stroke="black" points="389.21,-185.17 396.14,-177.16 385.73,-179.1 389.21,-185.17"/>
<text text-anchor="middle" x="370.45" y="-197.21" font-family="Times New Roman,serif" font-size="14.00">b</text>
</g>
<!-- q3q5&#45;&gt;q3q6 -->
<g id="edge17" class="edge">
<title>q3q5&#45;&gt;q3q6</title>
<path fill="none" stroke="black" d="M449.65,-147.1C462.48,-139.49 477.98,-130.3 491,-122.57"/>
<polygon fill="black" stroke="black" points="493.16,-125.36 499.97,-117.25 489.58,-119.34 493.16,-125.36"/>
<text text-anchor="middle" x="475.26" y="-137.21" font-family="Times New Roman,serif" font-size="14.00">b</text>
</g>
<!-- q3q5&#45;&gt;q3q5 -->
<g id="edge16" class="edge">
<title>q3q5&#45;&gt;q3q5</title>
<path fill="none" stroke="black" d="M413.12,-191.23C412.8,-201.97 416.05,-210.81 422.85,-210.81 427.32,-210.81 430.25,-207 431.65,-201.35"/>
<polygon fill="black" stroke="black" points="435.15,-201.51 432.58,-191.23 428.18,-200.86 435.15,-201.51"/>
<text text-anchor="middle" x="422.85" y="-214.61" font-family="Times New Roman,serif" font-size="14.00">a</text>
</g>
</g>
</svg>
