<?xml version="1.0" encoding="UTF-8" standalone="no"?>
<!DOCTYPE svg PUBLIC "-//W3C//DTD SVG 1.1//EN"
 "http://www.w3.org/Graphics/SVG/1.1/DTD/svg11.dtd">
<!-- Generated by graphviz version 3.0.0 (20220226.1711)
 -->
<!-- Pages: 1 -->
<svg width="389pt" height="117pt"
 viewBox="14.40 14.40 374.40 102.20" xmlns="http://www.w3.org/2000/svg" xmlns:xlink="http://www.w3.org/1999/xlink">
<g id="graph0" class="graph" transform="scale(0.593993 0.593993) rotate(0) translate(28.24 168.05)">
<polygon fill="white" stroke="transparent" points="-4,4 -4,-143.81 602.07,-143.81 602.07,4 -4,4"/>
<!-- q4q6 -->
<g id="node1" class="node">
<title>q4q6</title>
<ellipse fill="none" stroke="black" cx="452.85" cy="-32.41" rx="18" ry="18"/>
<ellipse fill="none" stroke="black" cx="452.85" cy="-32.41" rx="22" ry="22"/>
<text text-anchor="middle" x="452.85" y="-28.71" font-family="Times New Roman,serif" font-size="14.00">q4q6</text>
</g>
<!-- q4q5 -->
<g id="node9" class="node">
<title>q4q5</title>
<ellipse fill="none" stroke="black" cx="567.66" cy="-70.41" rx="30.31" ry="30.31"/>
<text text-anchor="middle" x="567.66" y="-66.71" font-family="Times New Roman,serif" font-size="14.00">q4q5</text>
</g>
<!-- q4q6&#45;&gt;q4q5 -->
<g id="edge9" class="edge">
<title>q4q6&#45;&gt;q4q5</title>
<path fill="none" stroke="black" d="M474.15,-39.26C482.54,-42.09 492.37,-45.41 501.26,-48.41 510.26,-51.44 519.96,-54.71 529.07,-57.77"/>
<polygon fill="black" stroke="black" points="528.06,-61.12 538.65,-60.99 530.29,-54.49 528.06,-61.12"/>
<text text-anchor="middle" x="510.26" y="-59.21" font-family="Times New Roman,serif" font-size="14.00">a,b</text>
</g>
<!--   -->
<g id="node2" class="node">
<title> </title>
<ellipse fill="none" stroke="white" cx="20.51" cy="-30.41" rx="20.51" ry="20.51"/>
<text text-anchor="middle" x="20.51" y="-26.71" font-family="Times New Roman,serif" font-size="14.00"> </text>
</g>
<!-- q1q5 -->
<g id="node3" class="node">
<title>q1q5</title>
<ellipse fill="none" stroke="black" cx="108.42" cy="-30.41" rx="30.31" ry="30.31"/>
<text text-anchor="middle" x="108.42" y="-26.71" font-family="Times New Roman,serif" font-size="14.00">q1q5</text>
</g>
<!--  &#45;&gt;q1q5 -->
<g id="edge1" class="edge">
<title> &#45;&gt;q1q5</title>
<path fill="none" stroke="black" d="M41.43,-30.41C49.28,-30.41 58.59,-30.41 67.7,-30.41"/>
<polygon fill="black" stroke="black" points="67.82,-33.91 77.82,-30.41 67.82,-26.91 67.82,-33.91"/>
</g>
<!-- q2q6 -->
<g id="node4" class="node">
<title>q2q6</title>
<ellipse fill="none" stroke="black" cx="223.23" cy="-30.41" rx="30.31" ry="30.31"/>
<text text-anchor="middle" x="223.23" y="-26.71" font-family="Times New Roman,serif" font-size="14.00">q2q6</text>
</g>
<!-- q1q5&#45;&gt;q2q6 -->
<g id="edge2" class="edge">
<title>q1q5&#45;&gt;q2q6</title>
<path fill="none" stroke="black" d="M139.06,-30.41C152.4,-30.41 168.34,-30.41 182.69,-30.41"/>
<polygon fill="black" stroke="black" points="182.79,-33.91 192.79,-30.41 182.79,-26.91 182.79,-33.91"/>
<text text-anchor="middle" x="165.82" y="-34.21" font-family="Times New Roman,serif" font-size="14.00">a,b</text>
</g>
<!-- q3q5 -->
<g id="node8" class="node">
<title>q3q5</title>
<ellipse fill="none" stroke="black" cx="338.04" cy="-30.41" rx="30.31" ry="30.31"/>
<text text-anchor="middle" x="338.04" y="-26.71" font-family="Times New Roman,serif" font-size="14.00">q3q5</text>
</g>
<!-- q2q6&#45;&gt;q3q5 -->
<g id="edge5" class="edge">
<title>q2q6&#45;&gt;q3q5</title>
<path fill="none" stroke="black" d="M253.87,-30.41C267.21,-30.41 283.16,-30.41 297.5,-30.41"/>
<polygon fill="black" stroke="black" points="297.6,-33.91 307.6,-30.41 297.6,-26.91 297.6,-33.91"/>
<text text-anchor="middle" x="280.63" y="-34.21" font-family="Times New Roman,serif" font-size="14.00">a,b</text>
</g>
<!-- q1q6 -->
<g id="node5" class="node">
<title>q1q6</title>
<ellipse fill="none" stroke="black" cx="223.23" cy="-109.41" rx="30.31" ry="30.31"/>
<text text-anchor="middle" x="223.23" y="-105.71" font-family="Times New Roman,serif" font-size="14.00">q1q6</text>
</g>
<!-- q2q5 -->
<g id="node6" class="node">
<title>q2q5</title>
<ellipse fill="none" stroke="black" cx="338.04" cy="-109.41" rx="30.31" ry="30.31"/>
<text text-anchor="middle" x="338.04" y="-105.71" font-family="Times New Roman,serif" font-size="14.00">q2q5</text>
</g>
<!-- q1q6&#45;&gt;q2q5 -->
<g id="edge3" class="edge">
<title>q1q6&#45;&gt;q2q5</title>
<path fill="none" stroke="black" d="M253.87,-109.41C267.21,-109.41 283.16,-109.41 297.5,-109.41"/>
<polygon fill="black" stroke="black" points="297.6,-112.91 307.6,-109.41 297.6,-105.91 297.6,-112.91"/>
<text text-anchor="middle" x="280.63" y="-113.21" font-family="Times New Roman,serif" font-size="14.00">a,b</text>
</g>
<!-- q3q6 -->
<g id="node7" class="node">
<title>q3q6</title>
<ellipse fill="none" stroke="black" cx="452.85" cy="-108.41" rx="30.31" ry="30.31"/>
<text text-anchor="middle" x="452.85" y="-104.71" font-family="Times New Roman,serif" font-size="14.00">q3q6</text>
</g>
<!-- q2q5&#45;&gt;q3q6 -->
<g id="edge4" class="edge">
<title>q2q5&#45;&gt;q3q6</title>
<path fill="none" stroke="black" d="M368.68,-109.14C382.02,-109.02 397.97,-108.88 412.31,-108.76"/>
<polygon fill="black" stroke="black" points="412.44,-112.26 422.41,-108.67 412.38,-105.26 412.44,-112.26"/>
<text text-anchor="middle" x="395.45" y="-112.21" font-family="Times New Roman,serif" font-size="14.00">a,b</text>
</g>
<!-- q3q6&#45;&gt;q4q5 -->
<g id="edge7" class="edge">
<title>q3q6&#45;&gt;q4q5</title>
<path fill="none" stroke="black" d="M481.86,-98.99C493.44,-95.1 507,-90.54 519.26,-86.41 522.38,-85.35 525.63,-84.26 528.89,-83.16"/>
<polygon fill="black" stroke="black" points="530.23,-86.4 538.59,-79.89 527.99,-79.77 530.23,-86.4"/>
<text text-anchor="middle" x="510.26" y="-96.21" font-family="Times New Roman,serif" font-size="14.00">a,b</text>
</g>
<!-- q3q5&#45;&gt;q4q6 -->
<g id="edge6" class="edge">
<title>q3q5&#45;&gt;q4q6</title>
<path fill="none" stroke="black" d="M368.68,-30.93C384.64,-31.21 404.32,-31.56 420.53,-31.85"/>
<polygon fill="black" stroke="black" points="420.54,-35.35 430.6,-32.03 420.67,-28.35 420.54,-35.35"/>
<text text-anchor="middle" x="395.45" y="-36.21" font-family="Times New Roman,serif" font-size="14.00">a,b</text>
</g>
<!-- q4q5&#45;&gt;q4q6 -->
<g id="edge8" class="edge">
<title>q4q5&#45;&gt;q4q6</title>
<path fill="none" stroke="black" d="M545.33,-49.02C537.74,-42.78 528.71,-36.74 519.26,-33.41 508.46,-29.6 496.03,-28.63 484.92,-28.86"/>
<polygon fill="black" stroke="black" points="484.58,-25.38 474.77,-29.4 484.94,-32.37 484.58,-25.38"/>
<text text-anchor="middle" x="510.26" y="-37.21" font-family="Times New Roman,serif" font-size="14.00">a,b</text>
</g>
</g>
</svg>
