<?xml version="1.0" encoding="UTF-8" standalone="no"?>
<!DOCTYPE svg PUBLIC "-//W3C//DTD SVG 1.1//EN"
 "http://www.w3.org/Graphics/SVG/1.1/DTD/svg11.dtd">
<!-- Generated by graphviz version 3.0.0 (20220226.1711)
 -->
<!-- Pages: 1 -->
<svg width="389pt" height="147pt"
 viewBox="14.40 14.40 374.40 132.18" xmlns="http://www.w3.org/2000/svg" xmlns:xlink="http://www.w3.org/1999/xlink">
<g id="graph0" class="graph" transform="scale(0.552938 0.552938) rotate(0) translate(30.04 235.04)">
<polygon fill="white" stroke="transparent" points="-4,4 -4,-209 647.07,-209 647.07,4 -4,4"/>
<!-- q1q3 -->
<g id="node1" class="node">
<title>q1q3</title>
<ellipse fill="none" stroke="black" cx="100.01" cy="-129" rx="18" ry="18"/>
<ellipse fill="none" stroke="black" cx="100.01" cy="-129" rx="22" ry="22"/>
<text text-anchor="middle" x="100.01" y="-125.3" font-family="Times New Roman,serif" font-size="14.00">q1q3</text>
</g>
<!-- q2q3 -->
<g id="node3" class="node">
<title>q2q3</title>
<ellipse fill="none" stroke="black" cx="195.42" cy="-76" rx="30.31" ry="30.31"/>
<text text-anchor="middle" x="195.42" y="-72.3" font-family="Times New Roman,serif" font-size="14.00">q2q3</text>
</g>
<!-- q1q3&#45;&gt;q2q3 -->
<g id="edge2" class="edge">
<title>q1q3&#45;&gt;q2q3</title>
<path fill="none" stroke="black" d="M119.47,-118.53C130.98,-112 146.16,-103.38 159.85,-95.61"/>
<polygon fill="black" stroke="black" points="161.61,-98.64 168.58,-90.66 158.15,-92.55 161.61,-98.64"/>
<text text-anchor="middle" x="143.51" y="-109.8" font-family="Times New Roman,serif" font-size="14.00">a</text>
</g>
<!-- q1q4 -->
<g id="node4" class="node">
<title>q1q4</title>
<ellipse fill="none" stroke="black" cx="404.04" cy="-114" rx="30.31" ry="30.31"/>
<text text-anchor="middle" x="404.04" y="-110.3" font-family="Times New Roman,serif" font-size="14.00">q1q4</text>
</g>
<!-- q1q3&#45;&gt;q1q4 -->
<g id="edge3" class="edge">
<title>q1q3&#45;&gt;q1q4</title>
<path fill="none" stroke="black" d="M122.25,-127.95C172.36,-125.46 298.62,-119.19 363.38,-115.97"/>
<polygon fill="black" stroke="black" points="363.79,-119.45 373.6,-115.46 363.44,-112.46 363.79,-119.45"/>
<text text-anchor="middle" x="247.82" y="-125.8" font-family="Times New Roman,serif" font-size="14.00">b</text>
</g>
<!--   -->
<g id="node2" class="node">
<title> </title>
<ellipse fill="none" stroke="white" cx="20.51" cy="-129" rx="20.51" ry="20.51"/>
<text text-anchor="middle" x="20.51" y="-125.3" font-family="Times New Roman,serif" font-size="14.00"> </text>
</g>
<!--  &#45;&gt;q1q3 -->
<g id="edge1" class="edge">
<title> &#45;&gt;q1q3</title>
<path fill="none" stroke="black" d="M41.06,-129C49.12,-129 58.66,-129 67.65,-129"/>
<polygon fill="black" stroke="black" points="67.83,-132.5 77.83,-129 67.83,-125.5 67.83,-132.5"/>
</g>
<!-- q2q3&#45;&gt;q1q3 -->
<g id="edge8" class="edge">
<title>q2q3&#45;&gt;q1q3</title>
<path fill="none" stroke="black" d="M164.98,-77.86C156.53,-79.31 147.56,-81.8 140.01,-86 132.46,-90.21 125.59,-96.42 119.79,-102.83"/>
<polygon fill="black" stroke="black" points="116.77,-100.98 113.05,-110.91 122.15,-105.47 116.77,-100.98"/>
<text text-anchor="middle" x="143.51" y="-89.8" font-family="Times New Roman,serif" font-size="14.00">a</text>
</g>
<!-- q2q4 -->
<g id="node5" class="node">
<title>q2q4</title>
<ellipse fill="none" stroke="black" cx="300.23" cy="-76" rx="30.31" ry="30.31"/>
<text text-anchor="middle" x="300.23" y="-72.3" font-family="Times New Roman,serif" font-size="14.00">q2q4</text>
</g>
<!-- q2q3&#45;&gt;q2q4 -->
<g id="edge9" class="edge">
<title>q2q3&#45;&gt;q2q4</title>
<path fill="none" stroke="black" d="M225.88,-76C236.42,-76 248.47,-76 259.72,-76"/>
<polygon fill="black" stroke="black" points="259.76,-79.5 269.76,-76 259.76,-72.5 259.76,-79.5"/>
<text text-anchor="middle" x="247.82" y="-79.8" font-family="Times New Roman,serif" font-size="14.00">b</text>
</g>
<!-- q1q4&#45;&gt;q2q4 -->
<g id="edge4" class="edge">
<title>q1q4&#45;&gt;q2q4</title>
<path fill="none" stroke="black" d="M381.7,-92.63C374.11,-86.39 365.08,-80.35 355.63,-77 350.98,-75.35 345.96,-74.33 340.92,-73.76"/>
<polygon fill="black" stroke="black" points="340.84,-70.25 330.64,-73.14 340.42,-77.23 340.84,-70.25"/>
<text text-anchor="middle" x="352.13" y="-80.8" font-family="Times New Roman,serif" font-size="14.00">a</text>
</g>
<!-- q1q5 -->
<g id="node6" class="node">
<title>q1q5</title>
<ellipse fill="none" stroke="black" cx="508.85" cy="-114" rx="30.31" ry="30.31"/>
<text text-anchor="middle" x="508.85" y="-110.3" font-family="Times New Roman,serif" font-size="14.00">q1q5</text>
</g>
<!-- q1q4&#45;&gt;q1q5 -->
<g id="edge5" class="edge">
<title>q1q4&#45;&gt;q1q5</title>
<path fill="none" stroke="black" d="M434.5,-114C445.04,-114 457.1,-114 468.35,-114"/>
<polygon fill="black" stroke="black" points="468.39,-117.5 478.39,-114 468.39,-110.5 468.39,-117.5"/>
<text text-anchor="middle" x="456.45" y="-117.8" font-family="Times New Roman,serif" font-size="14.00">b</text>
</g>
<!-- q2q4&#45;&gt;q1q4 -->
<g id="edge10" class="edge">
<title>q2q4&#45;&gt;q1q4</title>
<path fill="none" stroke="black" d="M329.05,-86.38C340.38,-90.61 353.66,-95.57 365.81,-100.1"/>
<polygon fill="black" stroke="black" points="364.66,-103.41 375.25,-103.63 367.11,-96.85 364.66,-103.41"/>
<text text-anchor="middle" x="352.13" y="-100.8" font-family="Times New Roman,serif" font-size="14.00">a</text>
</g>
<!-- q2q5 -->
<g id="node7" class="node">
<title>q2q5</title>
<ellipse fill="none" stroke="black" cx="612.66" cy="-59" rx="30.31" ry="30.31"/>
<text text-anchor="middle" x="612.66" y="-55.3" font-family="Times New Roman,serif" font-size="14.00">q2q5</text>
</g>
<!-- q2q4&#45;&gt;q2q5 -->
<g id="edge11" class="edge">
<title>q2q4&#45;&gt;q2q5</title>
<path fill="none" stroke="black" d="M330.55,-73.37C336.53,-72.87 342.78,-72.39 348.63,-72 427.8,-66.71 520.51,-62.61 572.02,-60.53"/>
<polygon fill="black" stroke="black" points="572.21,-64.02 582.06,-60.13 571.93,-57.03 572.21,-64.02"/>
<text text-anchor="middle" x="456.45" y="-69.8" font-family="Times New Roman,serif" font-size="14.00">b</text>
</g>
<!-- q1q5&#45;&gt;q1q3 -->
<g id="edge7" class="edge">
<title>q1q5&#45;&gt;q1q3</title>
<path fill="none" stroke="black" d="M489.96,-138.47C471.45,-160.68 440.33,-190 405.04,-190 194.42,-190 194.42,-190 194.42,-190 166.2,-190 139.85,-170.24 122.38,-153.22"/>
<polygon fill="black" stroke="black" points="124.49,-150.37 115,-145.67 119.49,-155.27 124.49,-150.37"/>
<text text-anchor="middle" x="300.23" y="-193.8" font-family="Times New Roman,serif" font-size="14.00">b</text>
</g>
<!-- q1q5&#45;&gt;q2q5 -->
<g id="edge6" class="edge">
<title>q1q5&#45;&gt;q2q5</title>
<path fill="none" stroke="black" d="M532.38,-93.86C539.91,-87.85 548.6,-81.63 557.26,-77 562.25,-74.33 567.7,-71.96 573.18,-69.89"/>
<polygon fill="black" stroke="black" points="574.66,-73.08 582.94,-66.47 572.35,-66.47 574.66,-73.08"/>
<text text-anchor="middle" x="560.76" y="-80.8" font-family="Times New Roman,serif" font-size="14.00">a</text>
</g>
<!-- q2q5&#45;&gt;q2q3 -->
<g id="edge13" class="edge">
<title>q2q5&#45;&gt;q2q3</title>
<path fill="none" stroke="black" d="M590.28,-37.7C570.97,-20.8 540.9,0 509.85,0 299.23,0 299.23,0 299.23,0 267.93,0 239.93,-23.05 221.08,-43.76"/>
<polygon fill="black" stroke="black" points="218.24,-41.69 214.31,-51.53 223.52,-46.29 218.24,-41.69"/>
<text text-anchor="middle" x="404.04" y="-3.8" font-family="Times New Roman,serif" font-size="14.00">b</text>
</g>
<!-- q2q5&#45;&gt;q1q5 -->
<g id="edge12" class="edge">
<title>q2q5&#45;&gt;q1q5</title>
<path fill="none" stroke="black" d="M587.73,-77.21C580.41,-82.35 572.19,-87.7 564.26,-92 558.92,-94.89 553.12,-97.63 547.36,-100.12"/>
<polygon fill="black" stroke="black" points="545.7,-97.02 537.8,-104.09 548.38,-103.49 545.7,-97.02"/>
<text text-anchor="middle" x="560.76" y="-98.8" font-family="Times New Roman,serif" font-size="14.00">a</text>
</g>
</g>
</svg>
