<?xml version="1.0" encoding="UTF-8" standalone="no"?>
<!DOCTYPE svg PUBLIC "-//W3C//DTD SVG 1.1//EN"
 "http://www.w3.org/Graphics/SVG/1.1/DTD/svg11.dtd">
<!-- Generated by graphviz version 3.0.0 (20220226.1711)
 -->
<!-- Pages: 1 -->
<svg width="389pt" height="310pt"
 viewBox="14.40 14.40 374.40 295.67" xmlns="http://www.w3.org/2000/svg" xmlns:xlink="http://www.w3.org/1999/xlink">
<g id="graph0" class="graph" transform="scale(0.857528 0.857528) rotate(0) translate(20.79 340.79)">
<polygon fill="white" stroke="transparent" points="-4,4 -4,-324 415.81,-324 415.81,4 -4,4"/>
<!-- q1q4 -->
<g id="node1" class="node">
<title>q1q4</title>
<ellipse fill="none" stroke="black" cx="22" cy="-250" rx="18" ry="18"/>
<ellipse fill="none" stroke="black" cx="22" cy="-250" rx="22" ry="22"/>
<text text-anchor="middle" x="22" y="-246.3" font-family="Times New Roman,serif" font-size="14.00">q1q4</text>
</g>
<!-- q1q5 -->
<g id="node2" class="node">
<title>q1q5</title>
<ellipse fill="none" stroke="black" cx="110" cy="-166" rx="18" ry="18"/>
<ellipse fill="none" stroke="black" cx="110" cy="-166" rx="22" ry="22"/>
<text text-anchor="middle" x="110" y="-162.3" font-family="Times New Roman,serif" font-size="14.00">q1q5</text>
</g>
<!-- q1q4&#45;&gt;q1q5 -->
<g id="edge5" class="edge">
<title>q1q4&#45;&gt;q1q5</title>
<path fill="none" stroke="black" d="M38.38,-234.98C51.71,-221.96 71.18,-202.94 86.3,-188.17"/>
<polygon fill="black" stroke="black" points="89.05,-190.38 93.76,-180.89 84.16,-185.37 89.05,-190.38"/>
<text text-anchor="middle" x="66" y="-213.8" font-family="Times New Roman,serif" font-size="14.00">b</text>
</g>
<!-- q2q4 -->
<g id="node4" class="node">
<title>q2q4</title>
<ellipse fill="none" stroke="black" cx="381.41" cy="-232" rx="18" ry="18"/>
<ellipse fill="none" stroke="black" cx="381.41" cy="-232" rx="22" ry="22"/>
<text text-anchor="middle" x="381.41" y="-228.3" font-family="Times New Roman,serif" font-size="14.00">q2q4</text>
</g>
<!-- q1q4&#45;&gt;q2q4 -->
<g id="edge4" class="edge">
<title>q1q4&#45;&gt;q2q4</title>
<path fill="none" stroke="black" d="M44.19,-251.54C61.59,-252.66 86.88,-254 109,-254 109,-254 109,-254 286,-254 308.15,-254 332.48,-248.18 350.89,-242.53"/>
<polygon fill="black" stroke="black" points="352.02,-245.85 360.46,-239.45 349.87,-239.19 352.02,-245.85"/>
<text text-anchor="middle" x="197" y="-257.8" font-family="Times New Roman,serif" font-size="14.00">a</text>
</g>
<!-- q2q5 -->
<g id="node5" class="node">
<title>q2q5</title>
<ellipse fill="none" stroke="black" cx="197" cy="-178" rx="18" ry="18"/>
<ellipse fill="none" stroke="black" cx="197" cy="-178" rx="22" ry="22"/>
<text text-anchor="middle" x="197" y="-174.3" font-family="Times New Roman,serif" font-size="14.00">q2q5</text>
</g>
<!-- q1q5&#45;&gt;q2q5 -->
<g id="edge6" class="edge">
<title>q1q5&#45;&gt;q2q5</title>
<path fill="none" stroke="black" d="M131.53,-171.39C137.45,-172.77 143.95,-174.11 150,-175 154.67,-175.69 159.63,-176.22 164.5,-176.62"/>
<polygon fill="black" stroke="black" points="164.64,-180.14 174.86,-177.34 165.12,-173.16 164.64,-180.14"/>
<text text-anchor="middle" x="153.5" y="-179.8" font-family="Times New Roman,serif" font-size="14.00">a</text>
</g>
<!-- q1q3 -->
<g id="node7" class="node">
<title>q1q3</title>
<ellipse fill="none" stroke="black" cx="381.41" cy="-72" rx="30.31" ry="30.31"/>
<text text-anchor="middle" x="381.41" y="-68.3" font-family="Times New Roman,serif" font-size="14.00">q1q3</text>
</g>
<!-- q1q5&#45;&gt;q1q3 -->
<g id="edge7" class="edge">
<title>q1q5&#45;&gt;q1q3</title>
<path fill="none" stroke="black" d="M126.14,-150.87C151.69,-126.51 206.18,-79.58 263,-62 288.54,-54.1 318.59,-56.87 341.9,-61.48"/>
<polygon fill="black" stroke="black" points="341.25,-64.92 351.77,-63.61 342.73,-58.07 341.25,-64.92"/>
<text text-anchor="middle" x="241" y="-75.8" font-family="Times New Roman,serif" font-size="14.00">b</text>
</g>
<!-- q2q3 -->
<g id="node3" class="node">
<title>q2q3</title>
<ellipse fill="none" stroke="black" cx="285" cy="-153" rx="18" ry="18"/>
<ellipse fill="none" stroke="black" cx="285" cy="-153" rx="22" ry="22"/>
<text text-anchor="middle" x="285" y="-149.3" font-family="Times New Roman,serif" font-size="14.00">q2q3</text>
</g>
<!-- q2q3&#45;&gt;q2q4 -->
<g id="edge9" class="edge">
<title>q2q3&#45;&gt;q2q4</title>
<path fill="none" stroke="black" d="M305.05,-163.24C313.91,-168.37 324.37,-174.99 333,-182 342.38,-189.62 351.74,-199.02 359.64,-207.6"/>
<polygon fill="black" stroke="black" points="357.16,-210.07 366.44,-215.18 362.37,-205.4 357.16,-210.07"/>
<text text-anchor="middle" x="329" y="-185.8" font-family="Times New Roman,serif" font-size="14.00">b</text>
</g>
<!-- q2q3&#45;&gt;q1q3 -->
<g id="edge8" class="edge">
<title>q2q3&#45;&gt;q1q3</title>
<path fill="none" stroke="black" d="M304.48,-141.67C313.41,-135.89 324.09,-128.5 333,-121 339.9,-115.19 346.89,-108.5 353.31,-101.97"/>
<polygon fill="black" stroke="black" points="356.14,-104.07 360.54,-94.43 351.09,-99.22 356.14,-104.07"/>
<text text-anchor="middle" x="329" y="-130.8" font-family="Times New Roman,serif" font-size="14.00">a</text>
</g>
<!-- q2q4&#45;&gt;q1q4 -->
<g id="edge10" class="edge">
<title>q2q4&#45;&gt;q1q4</title>
<path fill="none" stroke="black" d="M368.37,-250.04C352.35,-271.66 321.84,-305 286,-305 109,-305 109,-305 109,-305 84.02,-305 60.48,-288.33 44.36,-273.34"/>
<polygon fill="black" stroke="black" points="46.67,-270.7 37.08,-266.2 41.77,-275.7 46.67,-270.7"/>
<text text-anchor="middle" x="197" y="-308.8" font-family="Times New Roman,serif" font-size="14.00">a</text>
</g>
<!-- q2q4&#45;&gt;q2q5 -->
<g id="edge11" class="edge">
<title>q2q4&#45;&gt;q2q5</title>
<path fill="none" stroke="black" d="M360.1,-225.99C327.99,-216.48 265.33,-197.93 228.02,-186.89"/>
<polygon fill="black" stroke="black" points="228.8,-183.47 218.22,-183.99 226.81,-190.18 228.8,-183.47"/>
<text text-anchor="middle" x="285" y="-212.8" font-family="Times New Roman,serif" font-size="14.00">b</text>
</g>
<!-- q2q5&#45;&gt;q1q5 -->
<g id="edge12" class="edge">
<title>q2q5&#45;&gt;q1q5</title>
<path fill="none" stroke="black" d="M178.58,-165.65C172.11,-161.76 164.52,-157.97 157,-156 151.8,-154.63 146.23,-154.63 140.83,-155.38"/>
<polygon fill="black" stroke="black" points="139.8,-152.02 130.79,-157.59 141.31,-158.86 139.8,-152.02"/>
<text text-anchor="middle" x="153.5" y="-159.8" font-family="Times New Roman,serif" font-size="14.00">a</text>
</g>
<!-- q2q5&#45;&gt;q2q3 -->
<g id="edge13" class="edge">
<title>q2q5&#45;&gt;q2q3</title>
<path fill="none" stroke="black" d="M218.38,-172.08C228.98,-168.99 242.15,-165.17 253.9,-161.75"/>
<polygon fill="black" stroke="black" points="255.14,-165.03 263.77,-158.88 253.19,-158.31 255.14,-165.03"/>
<text text-anchor="middle" x="241" y="-170.8" font-family="Times New Roman,serif" font-size="14.00">b</text>
</g>
<!--   -->
<g id="node6" class="node">
<title> </title>
<ellipse fill="none" stroke="white" cx="285" cy="-92" rx="20.51" ry="20.51"/>
<text text-anchor="middle" x="285" y="-88.3" font-family="Times New Roman,serif" font-size="14.00"> </text>
</g>
<!--  &#45;&gt;q1q3 -->
<g id="edge1" class="edge">
<title> &#45;&gt;q1q3</title>
<path fill="none" stroke="black" d="M305.1,-87.95C315.56,-85.74 328.91,-82.91 341.46,-80.25"/>
<polygon fill="black" stroke="black" points="342.22,-83.67 351.28,-78.17 340.77,-76.82 342.22,-83.67"/>
</g>
<!-- q1q3&#45;&gt;q1q4 -->
<g id="edge3" class="edge">
<title>q1q3&#45;&gt;q1q4</title>
<path fill="none" stroke="black" d="M363.16,-47.62C346.18,-26.74 318.16,0 286,0 109,0 109,0 109,0 63.36,0 36.73,-150.86 27.12,-218.2"/>
<polygon fill="black" stroke="black" points="23.63,-217.86 25.72,-228.25 30.57,-218.83 23.63,-217.86"/>
<text text-anchor="middle" x="197" y="-3.8" font-family="Times New Roman,serif" font-size="14.00">b</text>
</g>
<!-- q1q3&#45;&gt;q2q3 -->
<g id="edge2" class="edge">
<title>q1q3&#45;&gt;q2q3</title>
<path fill="none" stroke="black" d="M354.1,-85.76C344.47,-91.39 333.78,-98.39 325,-106 317.86,-112.19 310.96,-119.77 305.01,-127.01"/>
<polygon fill="black" stroke="black" points="301.94,-125.25 298.49,-135.27 307.43,-129.59 301.94,-125.25"/>
<text text-anchor="middle" x="329" y="-109.8" font-family="Times New Roman,serif" font-size="14.00">a</text>
</g>
</g>
</svg>
