<?xml version="1.0" encoding="UTF-8" standalone="no"?>
<!DOCTYPE svg PUBLIC "-//W3C//DTD SVG 1.1//EN"
 "http://www.w3.org/Graphics/SVG/1.1/DTD/svg11.dtd">
<!-- Generated by graphviz version 3.0.0 (20220226.1711)
 -->
<!-- Pages: 1 -->
<svg width="389pt" height="183pt"
 viewBox="14.40 14.40 374.40 168.30" xmlns="http://www.w3.org/2000/svg" xmlns:xlink="http://www.w3.org/1999/xlink">
<g id="graph0" class="graph" transform="scale(0.756244 0.756244) rotate(0) translate(23.04 218.55)">
<polygon fill="white" stroke="transparent" points="-4,4 -4,-199.51 472.04,-199.51 472.04,4 -4,4"/>
<!-- q7 -->
<g id="node1" class="node">
<title>q7</title>
<ellipse fill="none" stroke="black" cx="358.04" cy="-42" rx="18" ry="18"/>
<ellipse fill="none" stroke="black" cx="358.04" cy="-42" rx="22" ry="22"/>
<text text-anchor="middle" x="358.04" y="-38.3" font-family="Times New Roman,serif" font-size="14.00">q7</text>
</g>
<!-- q7&#45;&gt;q7 -->
<g id="edge13" class="edge">
<title>q7&#45;&gt;q7</title>
<path fill="none" stroke="black" d="M350.03,-62.58C348.92,-72.84 351.59,-82 358.04,-82 362.17,-82 364.74,-78.24 365.77,-72.84"/>
<polygon fill="black" stroke="black" points="369.28,-72.67 366.04,-62.58 362.28,-72.49 369.28,-72.67"/>
<text text-anchor="middle" x="358.04" y="-85.8" font-family="Times New Roman,serif" font-size="14.00">b</text>
</g>
<!-- q9 -->
<g id="node3" class="node">
<title>q9</title>
<ellipse fill="none" stroke="black" cx="446.04" cy="-89" rx="18" ry="18"/>
<ellipse fill="none" stroke="black" cx="446.04" cy="-89" rx="22" ry="22"/>
<text text-anchor="middle" x="446.04" y="-85.3" font-family="Times New Roman,serif" font-size="14.00">q9</text>
</g>
<!-- q7&#45;&gt;q9 -->
<g id="edge14" class="edge">
<title>q7&#45;&gt;q9</title>
<path fill="none" stroke="black" d="M377.7,-52.2C389.3,-58.54 404.44,-66.81 417.42,-73.91"/>
<polygon fill="black" stroke="black" points="415.96,-77.1 426.41,-78.82 419.32,-70.95 415.96,-77.1"/>
<text text-anchor="middle" x="402.04" y="-70.8" font-family="Times New Roman,serif" font-size="14.00">a</text>
</g>
<!-- q6 -->
<g id="node2" class="node">
<title>q6</title>
<ellipse fill="none" stroke="black" cx="270.04" cy="-22" rx="18" ry="18"/>
<ellipse fill="none" stroke="black" cx="270.04" cy="-22" rx="22" ry="22"/>
<text text-anchor="middle" x="270.04" y="-18.3" font-family="Times New Roman,serif" font-size="14.00">q6</text>
</g>
<!-- q6&#45;&gt;q7 -->
<g id="edge12" class="edge">
<title>q6&#45;&gt;q7</title>
<path fill="none" stroke="black" d="M291.85,-26.84C302.21,-29.25 314.92,-32.21 326.36,-34.87"/>
<polygon fill="black" stroke="black" points="325.88,-38.35 336.41,-37.2 327.46,-31.53 325.88,-38.35"/>
<text text-anchor="middle" x="314.04" y="-36.8" font-family="Times New Roman,serif" font-size="14.00">a</text>
</g>
<!-- q6&#45;&gt;q6 -->
<g id="edge11" class="edge">
<title>q6&#45;&gt;q6</title>
<path fill="none" stroke="black" d="M262.03,-42.58C260.92,-52.84 263.59,-62 270.04,-62 274.17,-62 276.74,-58.24 277.77,-52.84"/>
<polygon fill="black" stroke="black" points="281.28,-52.67 278.04,-42.58 274.28,-52.49 281.28,-52.67"/>
<text text-anchor="middle" x="270.04" y="-65.8" font-family="Times New Roman,serif" font-size="14.00">b</text>
</g>
<!-- q9&#45;&gt;q9 -->
<g id="edge16" class="edge">
<title>q9&#45;&gt;q9</title>
<path fill="none" stroke="black" d="M438.03,-109.58C436.92,-119.84 439.59,-129 446.04,-129 450.17,-129 452.74,-125.24 453.77,-119.84"/>
<polygon fill="black" stroke="black" points="457.28,-119.67 454.04,-109.58 450.28,-119.49 457.28,-119.67"/>
<text text-anchor="middle" x="446.04" y="-132.8" font-family="Times New Roman,serif" font-size="14.00">b</text>
</g>
<!--   -->
<g id="node4" class="node">
<title> </title>
<ellipse fill="none" stroke="white" cx="20.51" cy="-99" rx="20.51" ry="20.51"/>
<text text-anchor="middle" x="20.51" y="-95.3" font-family="Times New Roman,serif" font-size="14.00"> </text>
</g>
<!-- q1 -->
<g id="node5" class="node">
<title>q1</title>
<ellipse fill="none" stroke="black" cx="98.52" cy="-99" rx="20.51" ry="20.51"/>
<text text-anchor="middle" x="98.52" y="-95.3" font-family="Times New Roman,serif" font-size="14.00">q1</text>
</g>
<!--  &#45;&gt;q1 -->
<g id="edge1" class="edge">
<title> &#45;&gt;q1</title>
<path fill="none" stroke="black" d="M41.08,-99C49.24,-99 58.89,-99 67.88,-99"/>
<polygon fill="black" stroke="black" points="68.01,-102.5 78.01,-99 68.01,-95.5 68.01,-102.5"/>
</g>
<!-- q2 -->
<g id="node6" class="node">
<title>q2</title>
<ellipse fill="none" stroke="black" cx="183.53" cy="-129" rx="20.51" ry="20.51"/>
<text text-anchor="middle" x="183.53" y="-125.3" font-family="Times New Roman,serif" font-size="14.00">q2</text>
</g>
<!-- q1&#45;&gt;q2 -->
<g id="edge2" class="edge">
<title>q1&#45;&gt;q2</title>
<path fill="none" stroke="black" d="M117.94,-105.66C128.61,-109.51 142.27,-114.45 154.28,-118.79"/>
<polygon fill="black" stroke="black" points="153.28,-122.15 163.87,-122.26 155.66,-115.57 153.28,-122.15"/>
<text text-anchor="middle" x="141.02" y="-118.8" font-family="Times New Roman,serif" font-size="14.00">a</text>
</g>
<!-- q3 -->
<g id="node7" class="node">
<title>q3</title>
<ellipse fill="none" stroke="black" cx="183.53" cy="-70" rx="20.51" ry="20.51"/>
<text text-anchor="middle" x="183.53" y="-66.3" font-family="Times New Roman,serif" font-size="14.00">q3</text>
</g>
<!-- q1&#45;&gt;q3 -->
<g id="edge3" class="edge">
<title>q1&#45;&gt;q3</title>
<path fill="none" stroke="black" d="M118.36,-92.42C129.04,-88.69 142.62,-83.94 154.54,-79.78"/>
<polygon fill="black" stroke="black" points="155.77,-83.06 164.05,-76.45 153.46,-76.45 155.77,-83.06"/>
<text text-anchor="middle" x="141.02" y="-89.8" font-family="Times New Roman,serif" font-size="14.00">b</text>
</g>
<!-- q4 -->
<g id="node8" class="node">
<title>q4</title>
<ellipse fill="none" stroke="black" cx="270.04" cy="-175" rx="20.51" ry="20.51"/>
<text text-anchor="middle" x="270.04" y="-171.3" font-family="Times New Roman,serif" font-size="14.00">q4</text>
</g>
<!-- q2&#45;&gt;q4 -->
<g id="edge4" class="edge">
<title>q2&#45;&gt;q4</title>
<path fill="none" stroke="black" d="M202.04,-138.53C213.71,-144.88 229.27,-153.35 242.46,-160.53"/>
<polygon fill="black" stroke="black" points="241.09,-163.77 251.55,-165.48 244.44,-157.63 241.09,-163.77"/>
<text text-anchor="middle" x="226.04" y="-156.8" font-family="Times New Roman,serif" font-size="14.00">a</text>
</g>
<!-- q5 -->
<g id="node9" class="node">
<title>q5</title>
<ellipse fill="none" stroke="black" cx="270.04" cy="-116" rx="20.51" ry="20.51"/>
<text text-anchor="middle" x="270.04" y="-112.3" font-family="Times New Roman,serif" font-size="14.00">q5</text>
</g>
<!-- q2&#45;&gt;q5 -->
<g id="edge5" class="edge">
<title>q2&#45;&gt;q5</title>
<path fill="none" stroke="black" d="M204.13,-125.98C214.58,-124.38 227.66,-122.37 239.33,-120.57"/>
<polygon fill="black" stroke="black" points="240.19,-123.98 249.54,-119 239.13,-117.06 240.19,-123.98"/>
<text text-anchor="middle" x="226.04" y="-126.8" font-family="Times New Roman,serif" font-size="14.00">b</text>
</g>
<!-- q3&#45;&gt;q6 -->
<g id="edge7" class="edge">
<title>q3&#45;&gt;q6</title>
<path fill="none" stroke="black" d="M201.63,-60.29C213.15,-53.74 228.59,-44.97 241.79,-37.47"/>
<polygon fill="black" stroke="black" points="243.53,-40.51 250.49,-32.53 240.07,-34.43 243.53,-40.51"/>
<text text-anchor="middle" x="226.04" y="-51.8" font-family="Times New Roman,serif" font-size="14.00">b</text>
</g>
<!-- q3&#45;&gt;q5 -->
<g id="edge6" class="edge">
<title>q3&#45;&gt;q5</title>
<path fill="none" stroke="black" d="M202.04,-79.53C213.71,-85.88 229.27,-94.35 242.46,-101.53"/>
<polygon fill="black" stroke="black" points="241.09,-104.77 251.55,-106.48 244.44,-98.63 241.09,-104.77"/>
<text text-anchor="middle" x="226.04" y="-98.8" font-family="Times New Roman,serif" font-size="14.00">a</text>
</g>
<!-- q8 -->
<g id="node10" class="node">
<title>q8</title>
<ellipse fill="none" stroke="black" cx="358.04" cy="-136" rx="20.51" ry="20.51"/>
<text text-anchor="middle" x="358.04" y="-132.3" font-family="Times New Roman,serif" font-size="14.00">q8</text>
</g>
<!-- q4&#45;&gt;q8 -->
<g id="edge8" class="edge">
<title>q4&#45;&gt;q8</title>
<path fill="none" stroke="black" d="M289.27,-166.73C301.1,-161.37 316.71,-154.29 329.97,-148.27"/>
<polygon fill="black" stroke="black" points="331.46,-151.44 339.12,-144.13 328.57,-145.07 331.46,-151.44"/>
<text text-anchor="middle" x="314.04" y="-159.8" font-family="Times New Roman,serif" font-size="14.00">b</text>
</g>
<!-- q5&#45;&gt;q7 -->
<g id="edge9" class="edge">
<title>q5&#45;&gt;q7</title>
<path fill="none" stroke="black" d="M286.02,-103.11C298.93,-92 317.81,-75.75 332.86,-62.8"/>
<polygon fill="black" stroke="black" points="335.47,-65.18 340.77,-56 330.9,-59.87 335.47,-65.18"/>
<text text-anchor="middle" x="314.04" y="-85.8" font-family="Times New Roman,serif" font-size="14.00">b</text>
</g>
<!-- q5&#45;&gt;q8 -->
<g id="edge10" class="edge">
<title>q5&#45;&gt;q8</title>
<path fill="none" stroke="black" d="M290.12,-120.44C301.26,-123.03 315.53,-126.35 328.03,-129.25"/>
<polygon fill="black" stroke="black" points="327.47,-132.72 338,-131.57 329.06,-125.9 327.47,-132.72"/>
<text text-anchor="middle" x="314.04" y="-130.8" font-family="Times New Roman,serif" font-size="14.00">a</text>
</g>
<!-- q8&#45;&gt;q9 -->
<g id="edge15" class="edge">
<title>q8&#45;&gt;q9</title>
<path fill="none" stroke="black" d="M376.44,-126.49C388.24,-120.04 404.09,-111.38 417.58,-104"/>
<polygon fill="black" stroke="black" points="419.37,-107.01 426.47,-99.15 416.01,-100.87 419.37,-107.01"/>
<text text-anchor="middle" x="402.04" y="-117.8" font-family="Times New Roman,serif" font-size="14.00">b</text>
</g>
</g>
</svg>
