<?xml version="1.0" encoding="UTF-8" standalone="no"?>
<!DOCTYPE svg PUBLIC "-//W3C//DTD SVG 1.1//EN"
 "http://www.w3.org/Graphics/SVG/1.1/DTD/svg11.dtd">
<!-- Generated by graphviz version 3.0.0 (20220226.1711)
 -->
<!-- Pages: 1 -->
<svg width="158pt" height="99pt"
 viewBox="14.40 14.40 143.41 84.40" xmlns="http://www.w3.org/2000/svg" xmlns:xlink="http://www.w3.org/1999/xlink">
<g id="graph0" class="graph" transform="scale(1 1) rotate(0) translate(18.4 80.4)">
<polygon fill="white" stroke="transparent" points="-4,4 -4,-66 125.01,-66 125.01,4 -4,4"/>
<!-- q1 -->
<g id="node1" class="node">
<title>q1</title>
<ellipse fill="none" stroke="black" cx="99.01" cy="-22" rx="18" ry="18"/>
<ellipse fill="none" stroke="black" cx="99.01" cy="-22" rx="22" ry="22"/>
<text text-anchor="middle" x="99.01" y="-18.3" font-family="Times New Roman,serif" font-size="14.00">q1</text>
</g>
<!-- q1&#45;&gt;q1 -->
<g id="edge2" class="edge">
<title>q1&#45;&gt;q1</title>
<path fill="none" stroke="black" d="M85.54,-39.68C82.03,-51.06 86.52,-62 99.01,-62 107.6,-62 112.41,-56.83 113.43,-49.9"/>
<polygon fill="black" stroke="black" points="116.89,-49.32 112.48,-39.68 109.92,-49.97 116.89,-49.32"/>
</g>
<!--   -->
<g id="node2" class="node">
<title> </title>
<ellipse fill="none" stroke="white" cx="20.51" cy="-22" rx="20.51" ry="20.51"/>
<text text-anchor="middle" x="20.51" y="-18.3" font-family="Times New Roman,serif" font-size="14.00"> </text>
</g>
<!--  &#45;&gt;q1 -->
<g id="edge1" class="edge">
<title> &#45;&gt;q1</title>
<path fill="none" stroke="black" d="M41.21,-22C48.95,-22 58.03,-22 66.63,-22"/>
<polygon fill="black" stroke="black" points="66.77,-25.5 76.77,-22 66.77,-18.5 66.77,-25.5"/>
</g>
</g>
</svg>
